<?xml version="1.0" standalone="no"?>
<!DOCTYPE svg PUBLIC "-//W3C//DTD SVG 20010904//EN"
 "http://www.w3.org/TR/2001/REC-SVG-20010904/DTD/svg10.dtd">
<svg version="1.0" xmlns="http://www.w3.org/2000/svg"
 width="474.000000pt" height="474.000000pt" viewBox="0 0 474.000000 474.000000"
 preserveAspectRatio="xMidYMid meet">
<metadata>
Created by potrace 1.14, written by Peter Selinger 2001-2017
</metadata>
<g transform="translate(0.000000,474.000000) scale(0.100000,-0.100000)"
fill="#000000" stroke="none">
<path d="M1195 4433 c-304 -25 -508 -121 -677 -320 -125 -147 -185 -303 -208
-538 -14 -151 -14 -2292 1 -2423 29 -266 104 -431 269 -591 145 -141 308 -216
535 -245 102 -14 283 -16 1241 -16 1158 0 1257 3 1413 41 310 77 553 319 630
630 40 162 42 261 38 1479 -4 1284 -1 1230 -67 1413 -78 214 -270 411 -482
496 -94 38 -179 57 -307 70 -93 10 -2275 14 -2386 4z m-75 -598 c168 -75 343
-154 390 -175 l85 -38 0 -62 0 -62 -399 -179 c-220 -99 -401 -179 -403 -179
-2 0 -3 32 -1 71 l3 71 313 136 c171 75 312 139 312 142 0 3 -118 56 -263 119
-144 63 -286 125 -314 138 l-53 24 0 71 c0 52 3 69 13 65 6 -3 149 -67 317
-142z m1350 -835 l0 -40 -400 0 -400 0 0 40 0 40 400 0 400 0 0 -40z"/>
</g>
</svg>
